<?xml version="1.0" encoding="utf-8"?>
<!-- Generator: Adobe Illustrator 23.0.0, SVG Export Plug-In . SVG Version: 6.00 Build 0)  -->
<svg version="1.1" xmlns="http://www.w3.org/2000/svg" xmlns:xlink="http://www.w3.org/1999/xlink" x="0px" y="0px"
	 viewBox="0 0 28 28" style="enable-background:new 0 0 28 28;" xml:space="preserve">
<g id="Layer_1">
	<title>mkr</title>
	<desc>Designed by Anudit Nagar</desc>
</g>
<g id="Layer_1">
	<g>
		<g>
			<path fill="#1AAB9A" d="M15.1,27.6c-0.7,0-1.4,0-2.2,0c-1.1-0.1-2.1-0.3-3.1-0.7c-4.5-1.6-7.5-4.7-8.8-9.3c-0.3-0.8-0.3-1.7-0.5-2.6
				c0-0.6,0-1.2,0-1.8c0-0.1,0-0.2,0-0.3c0.3-3.1,1.5-5.8,3.6-8.1c1.8-1.9,4-3.2,6.6-3.9c0.8-0.2,1.5-0.3,2.3-0.4c0.7,0,1.4,0,2.1,0
				c0.1,0,0.1,0,0.2,0c1.4,0.1,2.8,0.5,4.2,1.1c2,0.9,3.7,2.2,5.1,3.9c1.1,1.3,1.9,2.8,2.4,4.5c0.3,0.9,0.4,1.8,0.6,2.8
				c0,0.8,0,1.7,0,2.5c0,0.1,0,0.2-0.1,0.3c-0.3,2.4-1.1,4.5-2.5,6.4c-2,2.8-4.7,4.6-8.1,5.3C16.4,27.4,15.7,27.5,15.1,27.6z
				 M22,14.1c0-1.4,0-2.7,0-4.1c0-0.1,0-0.2,0-0.4c0-0.5-0.4-0.7-0.9-0.5c-0.1,0.1-0.3,0.1-0.4,0.2c-1.8,1.3-3.7,2.5-5.5,3.8
				c-0.3,0.2-0.5,0.5-0.5,0.9c0,1.4,0,2.9,0,4.3c0,0.1,0,0.2,0,0.3c0.1,0.2,0.2,0.4,0.5,0.4c0.2,0,0.4-0.1,0.5-0.2
				c0.1-0.1,0.1-0.3,0.1-0.5c0-1.3,0-2.6,0-3.9c0-0.4,0.1-0.6,0.4-0.8c0.9-0.6,1.8-1.2,2.7-1.9c0.5-0.3,1-0.7,1.5-1
				c0.1,0,0.1-0.1,0.2-0.1c0.1,0.1,0.1,0.2,0.1,0.3c0,0.1,0,0.2,0,0.2c0,2.3,0,4.6,0,6.9c0,0.1,0,0.3,0,0.4c0,0.3,0.3,0.5,0.6,0.5
				c0.3,0,0.5-0.2,0.5-0.5c0-0.1,0-0.3,0-0.4C22,16.8,22,15.4,22,14.1z M6.2,14.1c0,0.8,0,1.6,0,2.3c0,0.7,0,1.4,0,2.1
				c0,0.3,0.1,0.5,0.4,0.6c0.2,0.1,0.4,0,0.6-0.2c0.1-0.2,0.1-0.4,0.1-0.5c0-2.4,0-4.8,0-7.2c0-0.1,0-0.3,0.1-0.3
				c0.1-0.1,0.2,0.1,0.3,0.1c1.4,1,2.8,2,4.3,3c0.2,0.1,0.3,0.3,0.3,0.5c0,1.2,0,2.3,0,3.5c0,0.2,0,0.4,0,0.6c0,0.4,0.2,0.6,0.6,0.6
				c0.3,0,0.5-0.2,0.6-0.6c0-0.1,0-0.2,0-0.3c0-1.4,0-2.7,0-4.1c0-0.4-0.1-0.7-0.5-0.9c-1.4-0.9-2.8-1.9-4.1-2.9
				C8.2,9.9,7.6,9.5,7,9.1c-0.4-0.2-0.8,0-0.8,0.4c0,0.1,0,0.3,0,0.4C6.2,11.3,6.2,12.7,6.2,14.1z"/>
		</g>
	</g>
</g>
</svg>
